# xmcd CD database file
#
# Track frame offsets:
#	150
#	30982
#	55712
#	86992
#	113787
#	139405
#	165282
#	187497
#	217702
#	237627
#
# Disc length: 3552 seconds
#
# Revision: 0
# Processed by: cddbd v1.5.2PL0 Copyright (c) Steve Scherf et al.
# Submitted via: CDex 1.70beta2
#
DISCID=890dde0a
DTITLE=姜小鵬 - 奇異果樂隊 - 《變》民歌新奏
DYEAR=1990
DGENRE=New Age
TTITLE0=京劇《蘇三起解》狂想曲
TTITLE1=趕牲靈 
TTITLE2=天黑黑
TTITLE3=跑馬溜溜的山上
TTITLE4=遠方的客人請你留下來
TTITLE5=牧歌
TTITLE6=蝸牛與黃鸝
TTITLE7=三十里舖騎白馬
TTITLE8=阿拉木汗
TTITLE9=孟姜女哭長城
EXTD=YEAR: 1990
EXTT0=
EXTT1=
EXTT2=
EXTT3=
EXTT4=
EXTT5=
EXTT6=
EXTT7=
EXTT8=
EXTT9=
PLAYORDER=
